<?xml version="1.0" encoding="iso-8859-1"?>
<!-- Generator: Adobe Illustrator 19.0.0, SVG Export Plug-In . SVG Version: 6.00 Build 0)  -->
<svg version="1.1" id="Layer_1" xmlns="http://www.w3.org/2000/svg" xmlns:xlink="http://www.w3.org/1999/xlink" x="0px" y="0px"
	 viewBox="0 0 512 512" style="enable-background:new 0 0 512 512;" xml:space="preserve">
<g>
	<g>
		<path d="M381.192,281.647v15.023c0,69.031-56.161,125.192-125.192,125.192S130.808,365.701,130.808,296.67
			c0-63.95,48.192-116.854,110.169-124.296v80.442l126.407-126.408L240.977,0v81.851c-51.86,3.55-100.131,25.447-137.239,62.556
			c-40.671,40.671-63.069,94.745-63.069,152.262c0,57.517,22.398,111.592,63.069,152.262C144.408,489.602,198.483,512,256,512
			c57.516,0,111.592-22.397,152.262-63.068c40.67-40.67,63.069-94.745,63.069-152.262v-15.023H381.192z M256,481.954
			c-102.166,0-185.285-83.119-185.285-185.285S153.834,111.384,256,111.384h15.023V72.537l53.87,53.87l-53.87,53.87V141.43H256
			c-85.599,0-155.239,69.64-155.239,155.239S170.401,451.908,256,451.908c80.531,0,146.937-61.639,154.518-140.216h30.164
			C433.009,406.859,353.109,481.954,256,481.954z"/>
	</g>
</g>
<g>
</g>
<g>
</g>
<g>
</g>
<g>
</g>
<g>
</g>
<g>
</g>
<g>
</g>
<g>
</g>
<g>
</g>
<g>
</g>
<g>
</g>
<g>
</g>
<g>
</g>
<g>
</g>
<g>
</g>
</svg>
